HIERARCHY
ROOT hip
{
	OFFSET 0.000000 0.000000 0.000000 
	CHANNELS 6 Xposition Yposition Zposition Xrotation Zrotation Yrotation
	JOINT abdomen
	{
		OFFSET 0.000000 3.402643 0.000000 
		CHANNELS 3 Xrotation Zrotation Yrotation
		JOINT chest
		{
			OFFSET 0.000000 8.438565 -0.680529 
			CHANNELS 3 Xrotation Zrotation Yrotation
			JOINT neck
			{
				OFFSET 0.000000 10.207942 -0.272212 
				CHANNELS 3 Xrotation Zrotation Yrotation
				JOINT head
				{
					OFFSET 0.000000 3.130431 0.000000 
					CHANNELS 3 Xrotation Zrotation Yrotation
					End Site
					{
						OFFSET 0.000000 3.130435 0.000000 
					}
				}
			}
			JOINT lCollar
			{
				OFFSET 3.470700 6.669187 -0.816635 
				CHANNELS 3 Yrotation Zrotation Xrotation
				JOINT lShldr
				{
					OFFSET 3.198488 0.000000 0.000000 
					CHANNELS 3 Zrotation Yrotation Xrotation
					JOINT lForeArm
					{
						OFFSET 10.139888 0.000000 0.000000 
						CHANNELS 3 Yrotation Zrotation Xrotation
						JOINT lHand
						{
							OFFSET 8.370511 0.000000 0.000000 
							CHANNELS 3 Zrotation Yrotation Xrotation
							End Site
							{
								OFFSET 4.083176 0.000000 0.000000 
							}
						}
					}
				}
			}
			JOINT rCollar
			{
				OFFSET -3.470700 6.669187 -0.816635 
				CHANNELS 3 Yrotation Zrotation Xrotation
				JOINT rShldr
				{
					OFFSET -3.198488 0.000000 0.000000 
					CHANNELS 3 Zrotation Yrotation Xrotation
					JOINT rForeArm
					{
						OFFSET -10.139888 0.000000 0.000000 
						CHANNELS 3 Yrotation Zrotation Xrotation
						JOINT rHand
						{
							OFFSET -8.370511 0.000000 0.000000 
							CHANNELS 3 Zrotation Yrotation Xrotation
							End Site
							{
								OFFSET -4.083176 0.000000 0.000000 
							}
						}
					}
				}
			}
		}
	}
	JOINT lThigh
	{
		OFFSET 5.308129 -1.633274 1.361059 
		CHANNELS 3 Xrotation Zrotation Yrotation
		JOINT lShin
		{
			OFFSET -2.041588 -20.007561 0.000000 
			CHANNELS 3 Xrotation Zrotation Yrotation
			JOINT lFoot
			{
				OFFSET 0.000000 -19.190928 -1.224953 
				CHANNELS 3 Xrotation Yrotation Zrotation
				End Site
				{
					OFFSET 0.000000 -2.449906 4.627600 
				}
			}
		}
	}
	JOINT rThigh
	{
		OFFSET -5.308129 -1.633274 1.361059 
		CHANNELS 3 Xrotation Zrotation Yrotation
		JOINT rShin
		{
			OFFSET 2.041588 -20.007561 0.000000 
			CHANNELS 3 Xrotation Zrotation Yrotation
			JOINT rFoot
			{
				OFFSET 0.000000 -19.190928 -1.224953 
				CHANNELS 3 Xrotation Yrotation Zrotation
				End Site
				{
					OFFSET 0.000000 -2.449906 4.627600 
				}
			}
		}
	}
}
MOTION
Frames: 8
Frame Time: 0.033333
-0.498354 49.503426 0.838375 0.218699 0.517544 -0.654270 0.000000 0.000000 0.000000 -8.565452 0.029280 -1.953125 -0.564192 1.953048 -0.507850 8.299640 -0.068350 0.957031 -3.521967 9.154817 6.304141 -16.109222 13.147331 -40.879345 -19.940725 4.991645 44.988712 12.416650 10.797036 -8.595561 3.089181 -14.089146 8.026228 14.519361 -5.304982 -32.589035 14.022635 -5.012031 44.998165 5.118042 -4.473113 -8.017810 -2.566956 7.347795 8.468695 13.316718 -2.871183 -7.483131 -6.109155 0.257355 -0.984389 -0.079929 -9.084649 -14.579170 8.685687 1.911688 -1.607239 -4.935507 0.058237 -1.121747 
-0.488133 49.512409 0.843429 0.131146 0.527314 -0.605443 0.000000 0.000000 0.000000 -8.217830 0.136630 -2.070307 -0.364456 1.718702 -0.429787 8.429382 0.107409 0.878923 -3.521967 9.154817 6.304141 -16.345215 12.911273 -40.415466 -19.708172 4.996036 44.991962 12.567667 10.776338 -8.598787 3.089181 -14.089146 8.026228 14.417611 -4.973677 -32.736851 14.015705 -5.005125 44.998161 4.902239 -4.461133 -8.036143 -2.517333 7.324533 8.477187 13.401748 -2.880909 -7.577146 -6.197949 0.280990 -0.931376 0.028085 -9.125630 -14.682367 8.649559 1.940151 -1.617443 -4.836802 0.043540 -1.117100 
-0.478572 49.502007 0.829660 0.111099 0.576140 -0.605438 0.000000 0.000000 0.000000 -7.768367 0.126866 -2.119135 -0.521824 1.826118 -0.439541 8.507580 0.107408 0.917985 -3.521967 9.154817 6.304141 -16.493418 12.653131 -40.503807 -19.667545 4.995072 44.996532 12.632034 10.740435 -8.607385 3.089181 -14.089146 8.026228 14.433553 -4.681983 -33.250206 14.160187 -5.011569 44.997589 5.023788 -4.563517 -8.035528 -2.489890 7.273382 8.465231 13.371592 -2.941556 -7.522712 -6.423332 0.234584 -0.802755 -0.040924 -9.248982 -14.778624 8.835453 1.998919 -1.574375 -5.081102 0.059585 -1.164132 
-0.469502 49.498695 0.817594 0.120275 0.576133 -0.664029 0.000000 0.000000 0.000000 -7.368979 0.156146 -2.089836 -0.535762 2.050701 -0.507837 8.428233 0.029293 0.976567 -3.521967 9.154817 6.304141 -16.602104 12.322360 -40.817314 -19.736053 4.993383 44.996933 12.430629 10.660230 -8.608171 3.089181 -14.089146 8.026228 14.414726 -4.429067 -33.386036 14.207936 -5.005439 44.991837 4.992599 -4.616337 -8.046577 -2.615608 7.258714 8.425455 13.523618 -2.882827 -7.496998 -6.187726 0.240807 -0.927807 -0.137493 -9.293864 -14.829226 9.008794 2.017576 -1.485398 -5.157936 0.062556 -1.216242 
-0.479200 49.499157 0.802305 0.110571 0.517536 -0.732392 0.000000 0.000000 0.000000 -6.599814 0.214694 -2.138657 -2.183460 1.767569 -0.185459 9.200398 0.058582 1.152353 -3.521967 9.154817 6.304141 -16.588671 12.336022 -41.246235 -19.736053 4.993383 44.996933 12.584026 10.577680 -8.605555 3.089181 -14.089146 8.026228 14.463008 -4.269603 -34.060902 14.249773 -5.003623 44.998634 4.825030 -4.677856 -8.055414 -2.664711 7.319008 8.467690 13.675150 -2.871088 -7.505619 -6.364281 0.273606 -0.892078 -0.128831 -9.239511 -14.786214 8.941184 2.047272 -1.467916 -5.099176 0.062299 -1.216139 
-0.490033 49.489250 0.778610 0.102555 0.419894 -0.664045 0.000000 0.000000 0.000000 -6.086904 0.322016 -2.255879 -2.763960 1.689453 -0.009761 9.375436 0.019526 1.279300 -3.521967 9.154817 6.304141 -16.522429 12.130189 -41.592854 -19.825024 4.998928 44.996876 12.632193 10.637514 -8.603319 3.089181 -14.089146 8.026228 14.523958 -4.064281 -34.332996 14.318112 -5.004602 44.993084 4.849806 -4.782570 -8.064800 -2.695060 7.498737 8.554575 13.679270 -2.932202 -7.638401 -6.187490 0.223731 -0.924697 -0.137287 -9.059885 -14.684743 8.919431 1.988003 -1.609204 -4.950813 0.006082 -1.144197 
-0.496131 49.502956 0.769627 0.112394 0.439427 -0.624982 0.000000 0.000000 0.000000 -5.880090 0.273218 -2.294942 -2.562232 1.796865 0.195523 9.217711 -0.039049 1.523437 -3.521967 9.154817 6.304141 -16.233194 11.928823 -41.477871 -19.831631 4.992347 44.993919 12.294133 10.661616 -8.598271 3.089181 -14.089146 8.026228 14.546336 -3.874814 -34.250721 14.366873 -5.009680 44.999844 4.820508 -5.257562 -8.115183 -2.762138 7.483839 8.534121 13.759155 -2.922025 -7.700642 -6.187380 0.224895 -0.934849 -0.186729 -9.093895 -14.686286 8.968909 1.978484 -1.529003 -4.767579 0.013943 -1.076467 
-0.492261 49.495373 0.774544 0.110716 0.527304 -0.703095 0.000000 0.000000 0.000000 -5.580625 0.117103 -2.177730 -2.785496 1.982347 0.498424 9.190040 -0.273283 1.923806 -3.521967 9.154817 6.304141 -16.004215 11.722575 -41.904377 -19.955061 4.988643 44.996582 12.683233 10.678636 -8.605798 3.089181 -14.089146 8.026228 14.729569 -3.723438 -34.716393 14.587156 -5.007978 45.000225 4.945052 -5.103568 -8.097414 -2.625459 7.365513 8.479441 13.525858 -2.922129 -7.501401 -6.158919 0.275909 -0.922926 -0.235814 -9.210015 -14.762462 9.089866 2.008698 -1.452243 -5.111587 0.065708 -1.140346 
